{"title":"Japan war newsreel","uid":8259401,"size":38175556526,"categoryP":"video","categoryS":"other","magnet":"?xt=urn:btih:130cdc175a6d043f057d2f4761b6ac8ab01af25a&amp;dn=Japan+war+newsreel&amp;tr=udp%3A%2F%2Ftracker.openbittorrent.com%3A80&amp;tr=udp%3A%2F%2Fopen.demonii.com%3A1337&amp;tr=udp%3A%2F%2Ftracker.coppersurfer.tk%3A6969&amp;tr=udp%3A%2F%2Fexodus.desync.com%3A6969","seeders":0,"leechers":3,"uploader":"remoray","files":-1,"time":1363345546,"description":"Japan war newsreel 1940-1945\n\nFormat : AVI\n Format/Info : Audio Video Interleave\n File size : 213 MiB\n Duration : 13mn 54s\n Overall bit rate : 2 141 Kbps\n Writing application : Lavf52.32.0\n\nVideo\n ID : 0\n Format : xvid\n Codec ID : xvid\n Duration : 13mn 54s\n Bit rate : 1 999 Kbps\n Width : 720 pixels\n Height : 480 pixels\n Display aspect ratio : 16:9\n Frame rate : 29.970 fps\n Standard : NTSC\n Bits/(Pixel*Frame) : 0.193\n Stream size : 199 MiB (93%)\n\nAudio\n ID : 1\n Format : MPEG Audio\n Format version : Version 1\n Format profile : Layer 3\n Mode : Joint stereo\n Mode extension : MS Stereo\n Codec ID : 55\n Codec ID/Hint : MP3\n Duration : 13mn 54s\n Bit rate mode : Constant\n Bit rate : 128 Kbps\n Channel(s) : 2 channels\n Sampling rate : 44.1 KHz\n Compression mode : Lossy\n Stream size : 12.7 MiB (6%)\n Alignment : Aligned on interleaves\n Interleave, duration : 26 ms (0.78 video frame)\n Writing library : LAME3.97","torrent":{"xt":"urn:btih:130cdc175a6d043f057d2f4761b6ac8ab01af25a","amp;dn":"Japan+war+newsreel","amp;tr":["udp%3A%2F%2Ftracker.openbittorrent.com%3A80","udp%3A%2F%2Fopen.demonii.com%3A1337","udp%3A%2F%2Ftracker.coppersurfer.tk%3A6969","udp%3A%2F%2Fexodus.desync.com%3A6969"],"infoHash":"130cdc175a6d043f057d2f4761b6ac8ab01af25a","infoHashBuffer":{"type":"Buffer","data":[19,12,220,23,90,109,4,63,5,125,47,71,97,182,172,138,176,26,242,90]},"announce":[],"urlList":[]}}